<?xml version="1.0" encoding="iso-8859-1"?>
<!-- Uploaded to: SVG Repo, www.svgrepo.com, Generator: SVG Repo Mixer Tools -->
<svg version="1.1" id="Layer_1" xmlns="http://www.w3.org/2000/svg" xmlns:xlink="http://www.w3.org/1999/xlink" 
	viewBox="0 0 500 550" preserveAspectRatio="xMidYMid meet" xml:space="preserve">
<path style="fill:#E67F33;" d="M120,80v392h240V80c0-17.672-14.328-32-32-32H152C134.328,48,120,62.328,120,80z"/>
<polygon style="fill:#AD5F26;" points="264,392 216,392 224,336 256,336 "/>
<g>
	<path style="fill:#FCB641;" d="M208,288v32c0,8.84,7.16,16,16,16h16v-32c0-8.84-7.16-16-16-16H208z"/>
	<path style="fill:#FCB641;" d="M240,304v32h16c8.84,0,16-7.16,16-16v-32h-16C247.16,288,240,295.16,240,304z"/>
</g>
<g>
	<rect x="112" y="296" style="fill:#AD5F26;" width="96" height="32"/>
	<rect x="272" y="296" style="fill:#AD5F26;" width="96" height="32"/>
</g>
<path style="fill:#7B9B4C;" d="M392,144H88c-17.672,0-32-14.328-32-32V80c0-17.672,14.328-32,32-32h304c17.672,0,32,14.328,32,32v32
	C424,129.672,409.672,144,392,144z"/>
<path style="fill:#FCB641;" d="M392,144H88c-17.672,0-32-14.328-32-32V80c0-17.672,14.328-32,32-32h304c17.672,0,32,14.328,32,32v32
	C424,129.672,409.672,144,392,144z"/>
<path style="fill:#132C47;" d="M392,152H88c-22.056,0-40-17.944-40-40V80c0-22.056,17.944-40,40-40h304c22.056,0,40,17.944,40,40v32
	C432,134.056,414.056,152,392,152z M88,56c-13.232,0-24,10.768-24,24v32c0,13.232,10.768,24,24,24h304c13.232,0,24-10.768,24-24V80
	c0-13.232-10.768-24-24-24H88z"/>
<path style="fill:#AD5F26;" d="M184,48h-32V24c0-8.84,7.16-16,16-16h16V48z"/>
<g>
	<path style="fill:#E67F33;" d="M216,48h-32V8h16c8.84,0,16,7.16,16,16V48z"/>
	<path style="fill:#E67F33;" d="M296,48h-32V24c0-8.84,7.16-16,16-16h16V48z"/>
</g>
<g>
	<path style="fill:#AD5F26;" d="M328,48h-32V8h16c8.84,0,16,7.16,16,16V48z"/>
	<path style="fill:#AD5F26;" d="M336,472H144l0,0c0-44.184,35.816-80,80-80h32C300.184,392,336,427.816,336,472L336,472z"/>
	<path style="fill:#AD5F26;" d="M272,144h-64c-35.344,0-64-28.656-64-64V48h192v32C336,115.344,307.344,144,272,144z"/>
</g>
<circle style="fill:#FCB641;" cx="240" cy="96" r="16"/>
<g>
	<rect x="168" y="144" style="fill:#AD5F26;" width="32" height="48"/>
	<rect x="280" y="144" style="fill:#AD5F26;" width="32" height="48"/>
	<rect x="168" y="224" style="fill:#AD5F26;" width="32" height="72"/>
</g>
<path style="fill:#FCB641;" d="M192,192h-32v16c0,8.84,7.16,16,16,16h32v-16C208,199.16,200.84,192,192,192z"/>
<rect x="280" y="224" style="fill:#AD5F26;" width="32" height="72"/>
<path style="fill:#FCB641;" d="M288,192h32v16c0,8.84-7.16,16-16,16h-32v-16C272,199.16,279.16,192,288,192z"/>
<path style="fill:#AD5F26;" d="M456,472h-48v-32h64v16C472,464.84,464.84,472,456,472z"/>
<g>
	<path style="fill:#E67F33;" d="M408,472h-48V368h16c17.672,0,32,14.328,32,32V472z"/>
	<path style="fill:#E67F33;" d="M472,440h-32v-24c0-8.84,7.16-16,16-16h16V440z"/>
</g>
<rect x="360" y="408" style="fill:#FCB641;" width="48" height="32"/>
<path style="fill:#AD5F26;" d="M24,472h48v-32H8v16C8,464.84,15.16,472,24,472z"/>
<g>
	<path style="fill:#E67F33;" d="M72,472h48V368h-16c-17.672,0-32,14.328-32,32V472z"/>
	<path style="fill:#E67F33;" d="M8,440h32v-24c0-8.84-7.16-16-16-16H8V440z"/>
</g>
<rect x="72" y="408" style="fill:#FCB641;" width="48" height="32"/>
<g>
	<path style="fill:#132C47;" d="M472,392h-16c-13.232,0-24,10.768-24,24v16h-16v-32c0-22.056-17.944-40-40-40h-8v-24
		c4.424,0,8-3.584,8-8v-32c0-4.416-3.576-8-8-8V152h24c22.056,0,40-17.944,40-40V80c0-22.056-17.944-40-40-40h-56V24
		c0-13.232-10.768-24-24-24h-32c-13.232,0-24,10.768-24,24v16h-32V24c0-13.232-10.768-24-24-24h-32c-13.232,0-24,10.768-24,24v16H88
		c-22.056,0-40,17.944-40,40v32c0,22.056,17.944,40,40,40h24v136c-4.416,0-8,3.584-8,8v32c0,4.416,3.584,8,8,8v24h-8
		c-22.056,0-40,17.944-40,40v32H48v-16c0-13.232-10.768-24-24-24H8c-4.416,0-8,3.584-8,8v40v16c0,13.232,10.768,24,24,24h432
		c13.232,0,24-10.768,24-24v-16v-40C480,395.584,476.424,392,472,392z M16,408h8c4.408,0,8,3.592,8,8v16H16V408z M64,464H24
		c-4.408,0-8-3.592-8-8v-8h24h24V464z M352,368v40v32v24h-8.36c-3.6-39.728-33.744-71.84-72.496-78.6l-6.168-43.176
		c3.4-1.376,6.368-3.536,8.784-6.224H352V368z M230.936,344H240h9.064l5.712,40h-29.552L230.936,344z M224,328c-4.408,0-8-3.592-8-8
		v-24h8c4.408,0,8,3.592,8,8v24H224z M248,328v-24c0-4.408,3.584-8,8-8h8v24c0,4.408-3.584,8-8,8H248z M256,280
		c-6.168,0-11.744,2.408-16,6.24c-4.256-3.84-9.832-6.24-16-6.24h-16v-48c4.416,0,8-3.584,8-8v-16c0-7.064-3.128-13.36-8-17.76V152
		h64v38.24c-4.872,4.392-8,10.696-8,17.76v16c0,4.416,3.576,8,8,8v48H256z M312,200v8c0,4.408-3.584,8-8,8h-24v-8
		c0-4.408,3.584-8,8-8H312z M288,184v-32h16v32H288z M288,248v-16h16v16H288z M304,264v24h-16v-24H304z M312,304h8v16h-40v-16H312z
		 M344,62.24c4.872,4.392,8,10.696,8,17.76v56h-34.848C333.504,122.792,344,102.608,344,80V62.24z M352,320h-16v-16h16V320z
		 M352,288h-32v-62.24c4.872-4.392,8-10.696,8-17.76v-16c0-4.416-3.576-8-8-8v-32h32V288z M414.528,72H400c-4.424,0-8,3.584-8,8
		s3.576,8,8,8h16v16h-24c-4.424,0-8,3.584-8,8s3.576,8,8,8h22.528c-3.312,9.288-12.112,16-22.528,16h-24V80
		c0-9.04-3.128-17.296-8.208-24H392C402.416,56,411.216,62.712,414.528,72z M304,16h8c4.416,0,8,3.592,8,8v16h-16V16z M272,24
		c0-4.408,3.584-8,8-8h8v24h-16V24z M264,56h32h32v24c0,30.88-25.128,56-56,56h-64c-30.88,0-56-25.12-56-56V56h32h32H264z
		 M136,62.24V80c0,22.608,10.496,42.792,26.848,56H128V80C128,72.936,131.128,66.64,136,62.24z M192,264v24h-16v-24H192z M176,248
		v-16h16v16H176z M200,304v16h-40v-16h8H200z M176,216c-4.408,0-8-3.592-8-8v-8h24c4.408,0,8,3.592,8,8v8H176z M176,184v-32h16v32
		H176z M192,16h8c4.408,0,8,3.592,8,8v16h-16V16z M160,24c0-4.408,3.592-8,8-8h8v24h-16V24z M88,136
		c-10.416,0-19.216-6.712-22.528-16H88c4.416,0,8-3.584,8-8s-3.584-8-8-8H64V88h16c4.416,0,8-3.584,8-8s-3.584-8-8-8H65.472
		C68.784,62.712,77.584,56,88,56h32.208C115.128,62.704,112,70.96,112,80v56H88z M128,152h32v32c-4.416,0-8,3.584-8,8v16
		c0,7.064,3.128,13.36,8,17.76V288h-32V152z M128,304h16v16h-16V304z M104,376h8v24H80C80,386.768,90.768,376,104,376z M80,416h32
		v16H80V416z M80,448h32v16H80V448z M128,440v-32v-40v-32h78.24c2.424,2.688,5.384,4.848,8.792,6.224l-6.168,43.176
		c-38.752,6.76-68.896,38.88-72.504,78.6H128V440z M152.44,464c3.992-35.952,34.56-64,71.56-64h32c37,0,67.56,28.048,71.552,64
		H152.44z M400,464h-32v-16h32V464z M400,432h-32v-16h32V432z M368,400v-24h8c13.232,0,24,10.768,24,24H368z M464,456
		c0,4.408-3.584,8-8,8h-40v-16h24h24V456z M464,432h-16v-16c0-4.408,3.584-8,8-8h8V432z"/>
	<path style="fill:#132C47;" d="M240,120c13.232,0,24-10.768,24-24s-10.768-24-24-24s-24,10.768-24,24S226.768,120,240,120z M240,88
		c4.408,0,8,3.592,8,8s-3.592,8-8,8s-8-3.592-8-8S235.592,88,240,88z"/>
</g>
</svg>